<?xml version="1.0" encoding="utf-8"?>
<!-- Generator: Adobe Illustrator 26.0.3, SVG Export Plug-In . SVG Version: 6.00 Build 0)  -->
<svg version="1.1" id="Layer_1" xmlns="http://www.w3.org/2000/svg" xmlns:xlink="http://www.w3.org/1999/xlink" x="0px" y="0px"
	 viewBox="0 0 1999.44 1999.44" style="enable-background:new 0 0 1999.44 1999.44;" xml:space="preserve">
<style type="text/css">
	.st0{fill:#3A76AF;}
</style>
<g>
	<rect x="608.47" y="834.55" width="151.85" height="155.73"/>
	<rect x="733.38" y="1096.89" width="151.85" height="155.73"/>
	<rect x="397.8" y="1400.51" width="151.85" height="155.73"/>
	<rect x="914.48" y="834.55" width="151.85" height="155.73"/>
	<rect x="1111.73" y="617.05" class="st0" width="246.89" height="696.73"/>
	<rect x="1358.96" y="966.48" class="st0" width="242.82" height="347.3"/>
	<rect x="616.61" y="842.91" class="st0" width="135.56" height="139.03"/>
	<rect x="741.52" y="1105.24" class="st0" width="135.56" height="139.03"/>
	<rect x="405.94" y="1408.87" class="st0" width="135.56" height="139.03"/>
	<rect x="922.63" y="842.91" class="st0" width="135.56" height="139.03"/>
	<g>
		<path d="M751.36,1248.39L751.36,1248.39c-0.76,0.93-73.65,88.62-204.79,177.52l10.11,14.92
			c134.16-90.97,208.18-180.51,208.56-180.96L751.36,1248.39L751.36,1248.39z"/>
		<path d="M953.62,987.03l-0.02,0.03c-0.42,0.85-8.72,17.64-22.11,39.66c-13.37,22.01-31.9,49.28-52.43,70.93l13.08,12.39
			c11.15-11.77,21.53-24.82,30.86-37.78c14-19.44,25.65-38.69,33.83-53.13c8.18-14.44,12.9-24.06,12.96-24.18L953.62,987.03
			L953.62,987.03z"/>
		<path d="M689.18,992.4l5.77-1.65l-5.84,1.39C689.11,992.14,689.11,992.17,689.18,992.4l5.77-1.65l-5.84,1.39
			c0,0,0.04,0.16,0.08,0.37c0.19,0.84,0.57,2.63,1.14,5.08c2.02,8.59,6.44,25.57,14.3,44.78c3.93,9.61,8.72,19.77,14.55,29.75
			c5.82,9.98,12.67,19.76,20.77,28.58l13.27-12.19c-8.41-9.15-15.58-19.89-21.53-30.91c-8.94-16.53-15.15-33.64-19.12-46.73
			c-1.99-6.55-3.42-12.09-4.37-16.06c-0.48-1.99-0.84-3.58-1.09-4.73c-0.13-0.58-0.23-1.04-0.31-1.41
			c-0.04-0.19-0.08-0.35-0.11-0.51l-0.06-0.26c-0.03-0.1-0.05-0.21-0.11-0.43L689.18,992.4L689.18,992.4z"/>
		<ellipse transform="matrix(0.1602 -0.9871 0.9871 0.1602 495.2428 1680.7653)" cx="1235.37" cy="549.34" rx="34.96" ry="34.96"/>
		<polyline points="1228.77,319.03 1228.77,780.05 1241.98,780.05 1241.98,319.03 		"/>
		<polyline points="1356.62,542.93 1114.52,542.93 1114.52,556.15 1356.62,556.15 		"/>
		<ellipse transform="matrix(0.9871 -0.1602 0.1602 0.9871 -146.744 250.4189)" cx="1479.87" cy="1035.4" rx="34.96" ry="34.96"/>
		<polyline points="1473.26,896.44 1473.26,1175.16 1486.47,1175.16 1486.47,896.44 		"/>
		<polyline points="1601.12,1028.99 1359.02,1028.99 1359.02,1042.21 1601.12,1042.21 		"/>
	</g>
	<path d="M861.98,1357.47v20.83H839.1v-20.83H861.98z M861.98,1388.59v86.32H839.1v-86.32H861.98z"/>
	<path d="M924.3,1357.47v18.37c-1.27-0.16-3.39-0.28-6.38-0.36c-2.98-0.08-5.04,0.58-6.18,1.98c-1.14,1.4-1.7,2.94-1.7,4.63v7.29
		h14.81v15.92h-14.81v69.61h-22.49v-69.61h-12.59v-15.92h12.35v-5.54c0-9.24,1.56-15.6,4.67-19.08c3.27-5.17,11.17-7.76,23.68-7.76
		c1.43,0,2.72,0.04,3.88,0.12C920.71,1357.19,922.3,1357.31,924.3,1357.47z"/>
	<path d="M978.31,1357.47v18.37c-1.27-0.16-3.39-0.28-6.38-0.36c-2.98-0.08-5.04,0.58-6.18,1.98c-1.14,1.4-1.7,2.94-1.7,4.63v7.29
		h14.81v15.92h-14.81v69.61h-22.49v-69.61h-12.59v-15.92h12.35v-5.54c0-9.24,1.56-15.6,4.67-19.08c3.27-5.17,11.17-7.76,23.68-7.76
		c1.43,0,2.72,0.04,3.88,0.12C974.72,1357.19,976.31,1357.31,978.31,1357.47z"/>
	<path d="M1065.74,1449.57c-0.58,5.12-3.25,10.32-8,15.6c-7.39,8.39-17.74,12.59-31.04,12.59c-10.98,0-20.67-3.54-29.06-10.61
		c-8.39-7.07-12.59-18.58-12.59-34.53c0-14.94,3.79-26.4,11.36-34.37c7.58-7.97,17.41-11.96,29.5-11.96c7.18,0,13.65,1.35,19.4,4.04
		c5.75,2.69,10.5,6.94,14.25,12.75c3.38,5.12,5.57,11.06,6.57,17.82c0.58,3.96,0.82,9.66,0.71,17.11h-59.08
		c0.32,8.66,3.04,14.73,8.16,18.21c3.11,2.17,6.86,3.25,11.24,3.25c4.65,0,8.42-1.32,11.32-3.96c1.58-1.42,2.98-3.4,4.2-5.94
		H1065.74z M1043.41,1423.12c-0.37-5.97-2.18-10.49-5.42-13.58c-3.25-3.09-7.27-4.63-12.08-4.63c-5.23,0-9.28,1.64-12.16,4.91
		c-2.88,3.27-4.69,7.71-5.42,13.3H1043.41z"/>
	<path d="M1125.45,1409.42c-9.08,0-15.18,2.96-18.29,8.87c-1.74,3.32-2.61,8.45-2.61,15.36v41.26h-22.73v-86.32h21.54v15.05
		c3.48-5.75,6.52-9.69,9.11-11.8c4.22-3.54,9.71-5.31,16.47-5.31c0.42,0,0.78,0.01,1.07,0.04c0.29,0.03,0.94,0.07,1.94,0.12v23.12
		c-1.42-0.16-2.69-0.26-3.8-0.32C1127.03,1409.44,1126.14,1409.42,1125.45,1409.42z"/>
	<path d="M1219.05,1449.57c-0.58,5.12-3.25,10.32-8,15.6c-7.39,8.39-17.74,12.59-31.04,12.59c-10.98,0-20.67-3.54-29.06-10.61
		c-8.39-7.07-12.59-18.58-12.59-34.53c0-14.94,3.79-26.4,11.36-34.37c7.58-7.97,17.41-11.96,29.5-11.96c7.18,0,13.65,1.35,19.4,4.04
		c5.75,2.69,10.5,6.94,14.25,12.75c3.38,5.12,5.57,11.06,6.57,17.82c0.58,3.96,0.82,9.66,0.71,17.11h-59.08
		c0.32,8.66,3.04,14.73,8.16,18.21c3.11,2.17,6.86,3.25,11.24,3.25c4.65,0,8.42-1.32,11.32-3.96c1.58-1.42,2.98-3.4,4.2-5.94
		H1219.05z M1196.72,1423.12c-0.37-5.97-2.18-10.49-5.42-13.58c-3.25-3.09-7.27-4.63-12.08-4.63c-5.23,0-9.28,1.64-12.16,4.91
		c-2.88,3.27-4.69,7.71-5.42,13.3H1196.72z"/>
	<path d="M1275.99,1405.3c-7.66,0-12.91,3.25-15.76,9.74c-1.48,3.43-2.22,7.81-2.22,13.15v46.72h-22.49v-86.16h21.78v12.59
		c2.9-4.43,5.65-7.63,8.24-9.58c4.64-3.48,10.53-5.23,17.66-5.23c8.92,0,16.22,2.34,21.9,7.01c5.67,4.67,8.51,12.42,8.51,23.24
		v58.13h-23.12v-52.5c0-4.54-0.61-8.02-1.82-10.45C1286.45,1407.52,1282.22,1405.3,1275.99,1405.3z"/>
	<path d="M1373.95,1458.83v16.87l-10.69,0.4c-10.67,0.37-17.95-1.48-21.86-5.54c-2.53-2.59-3.8-6.57-3.8-11.96v-53.14h-12.04v-16.08
		h12.04v-24.07h22.33v24.07h14.02v16.08h-14.02v45.61c0,3.54,0.45,5.74,1.35,6.61c0.9,0.87,3.64,1.31,8.24,1.31
		c0.69,0,1.41-0.01,2.18-0.04C1372.46,1458.93,1373.21,1458.89,1373.95,1458.83z"/>
	<path d="M1411.65,1357.47v20.83h-22.89v-20.83H1411.65z M1411.65,1388.59v86.32h-22.89v-86.32H1411.65z"/>
	<path d="M1436.75,1397.93c5.97-7.6,16.21-11.4,30.73-11.4c9.45,0,17.84,1.87,25.18,5.62c7.34,3.75,11.01,10.82,11.01,21.22v39.6
		c0,2.75,0.05,6.07,0.16,9.98c0.16,2.96,0.61,4.96,1.35,6.02c0.74,1.06,1.85,1.93,3.33,2.61v3.33h-24.55
		c-0.69-1.74-1.16-3.38-1.43-4.91c-0.27-1.53-0.48-3.27-0.63-5.23c-3.12,3.38-6.7,6.26-10.77,8.63c-4.86,2.8-10.35,4.2-16.47,4.2
		c-7.81,0-14.27-2.23-19.36-6.69c-5.1-4.46-7.64-10.78-7.64-18.97c0-10.61,4.09-18.29,12.28-23.05c4.49-2.59,11.09-4.43,19.8-5.54
		l7.68-0.95c4.17-0.53,7.15-1.19,8.95-1.98c3.22-1.37,4.83-3.51,4.83-6.42c0-3.54-1.23-5.98-3.68-7.32
		c-2.46-1.35-6.06-2.02-10.81-2.02c-5.33,0-9.11,1.32-11.32,3.96c-1.58,1.95-2.64,4.59-3.17,7.92h-21.78
		C1430.89,1408.99,1433,1402.79,1436.75,1397.93z M1453.54,1458.59c2.11,1.74,4.7,2.61,7.76,2.61c4.86,0,9.33-1.42,13.42-4.28
		c4.09-2.85,6.22-8.05,6.38-15.6v-8.39c-1.43,0.9-2.86,1.62-4.32,2.18c-1.45,0.55-3.44,1.07-5.98,1.55l-5.07,0.95
		c-4.75,0.84-8.16,1.87-10.22,3.09c-3.48,2.06-5.23,5.25-5.23,9.58C1450.29,1454.13,1451.37,1456.91,1453.54,1458.59z"/>
	<path d="M1570.58,1477.2c-7.13,0-12.86-1.43-17.19-4.28c-2.59-1.69-5.39-4.64-8.39-8.87v10.85h-22.09v-116.57h22.49v41.5
		c2.85-4.01,5.99-7.07,9.42-9.19c4.07-2.64,9.24-3.96,15.52-3.96c11.35,0,20.23,4.09,26.65,12.28c6.41,8.18,9.62,18.74,9.62,31.68
		c0,13.41-3.17,24.52-9.5,33.34C1590.78,1472.8,1581.93,1477.2,1570.58,1477.2z M1582.94,1433.02c0-6.12-0.79-11.19-2.38-15.2
		c-3.01-7.6-8.55-11.4-16.63-11.4c-8.18,0-13.81,3.72-16.87,11.17c-1.58,3.96-2.38,9.08-2.38,15.36c0,7.39,1.64,13.52,4.91,18.37
		c3.27,4.86,8.26,7.29,14.97,7.29c5.81,0,10.32-2.35,13.54-7.05C1581.33,1446.85,1582.94,1440.67,1582.94,1433.02z"/>
	<path d="M1623.24,1358.18h22.57v116.73h-22.57V1358.18z"/>
	<path d="M1741.72,1449.57c-0.58,5.12-3.25,10.32-8,15.6c-7.39,8.39-17.74,12.59-31.04,12.59c-10.98,0-20.67-3.54-29.06-10.61
		c-8.39-7.07-12.59-18.58-12.59-34.53c0-14.94,3.79-26.4,11.36-34.37c7.58-7.97,17.41-11.96,29.5-11.96c7.18,0,13.65,1.35,19.4,4.04
		c5.75,2.69,10.5,6.94,14.25,12.75c3.38,5.12,5.57,11.06,6.57,17.82c0.58,3.96,0.82,9.66,0.71,17.11h-59.08
		c0.32,8.66,3.04,14.73,8.16,18.21c3.11,2.17,6.86,3.25,11.24,3.25c4.65,0,8.42-1.32,11.32-3.96c1.58-1.42,2.98-3.4,4.2-5.94
		H1741.72z M1719.38,1423.12c-0.37-5.97-2.18-10.49-5.42-13.58c-3.25-3.09-7.27-4.63-12.08-4.63c-5.23,0-9.28,1.64-12.16,4.91
		c-2.88,3.27-4.69,7.71-5.42,13.3H1719.38z"/>
	<path d="M463.12,861.28c-41.96-41.39-93.08-62.09-153.34-62.09c-41.34,0-76.99,10.72-106.96,32.15
		c-16.41,12.04-31.87,28.48-46.38,49.32l0.47-66.13H27.72v668.91h133.46l5.32-237.45c14.2,20.26,28.71,35.67,43.54,46.24
		c27.13,19.08,61.2,28.62,102.22,28.62c64.36,0,116.97-22.16,157.83-66.49c40.86-44.32,61.29-108.77,61.29-193.32
		C531.38,980.89,504.76,902.68,463.12,861.28z M366.49,1175.83c-20.09,29.66-49.26,44.47-87.5,44.47
		c-26.36,0-49.18-7.25-68.46-21.75c-32.47-24.81-48.69-67.84-48.69-129.07c0-38.67,4.82-70.58,14.46-95.72
		c18.64-47.37,52.87-71.06,102.69-71.06c41.46,0,71.43,15.64,89.91,46.89c18.48,31.26,27.72,67.19,27.72,107.8
		C396.62,1106.7,386.57,1146.18,366.49,1175.83z"/>
	<path d="M1734.95,812.54c0,0-0.8-17.58,2.4-77.5c7.99-61.26,70.05-101.74,113.72-107.07c43.68-5.33,120.65-2.13,120.65-2.13
		s0,86.03,0,103.07c-93.34-17.84-104.4,22.37-104.4,35.42c0,13.05,0,48.21,0,48.21h96.95v92.54h-96.95v404.7h-134.41v-404.7h-80.79
		v-92.54L1734.95,812.54z"/>
	<path d="M1060.14,1559.62v20.83h-22.89v-20.83H1060.14z M1060.14,1590.74v86.32h-22.89v-86.32H1060.14z"/>
	<path d="M1161.03,1677.06h-27.24l-20.67-36.9l-9.34,9.74v27.16h-22.17v-116.33h22.17v62.88l28.11-32.47h27.95l-30.17,33.02
		L1161.03,1677.06z"/>
	<path d="M1245.76,1651.71c-0.58,5.12-3.25,10.32-8,15.6c-7.39,8.39-17.74,12.59-31.04,12.59c-10.98,0-20.67-3.54-29.06-10.61
		c-8.39-7.07-12.59-18.58-12.59-34.53c0-14.94,3.79-26.4,11.36-34.37c7.58-7.97,17.41-11.96,29.5-11.96c7.18,0,13.65,1.35,19.4,4.04
		c5.75,2.69,10.5,6.94,14.25,12.75c3.38,5.12,5.57,11.06,6.57,17.82c0.58,3.96,0.82,9.66,0.71,17.11h-59.08
		c0.32,8.66,3.04,14.73,8.16,18.21c3.11,2.17,6.86,3.25,11.24,3.25c4.65,0,8.42-1.32,11.32-3.96c1.58-1.42,2.98-3.4,4.2-5.94
		H1245.76z M1223.43,1625.26c-0.37-5.97-2.18-10.49-5.42-13.58c-3.25-3.09-7.27-4.63-12.08-4.63c-5.23,0-9.28,1.64-12.16,4.91
		c-2.88,3.27-4.69,7.71-5.42,13.3H1223.43z"/>
	<path d="M1262.38,1560.33h22.57v116.73h-22.57V1560.33z"/>
	<path d="M1330.01,1559.62v20.83h-22.89v-20.83H1330.01z M1330.01,1590.74v86.32h-22.89v-86.32H1330.01z"/>
	<path d="M1429.71,1626.37v50.68h-23.05v-52.5c0-4.65-0.79-8.4-2.37-11.25c-2.06-4.01-5.97-6.02-11.72-6.02
		c-5.97,0-10.49,1.99-13.58,5.98c-3.09,3.99-4.63,9.67-4.63,17.07v46.72h-22.49v-116.33h22.49v41.26
		c3.27-5.02,7.06-8.51,11.36-10.49c4.3-1.98,8.83-2.97,13.58-2.97c5.33,0,10.18,0.92,14.53,2.77c4.36,1.85,7.93,4.67,10.73,8.47
		c2.37,3.22,3.83,6.53,4.35,9.94C1429.44,1613.11,1429.71,1618.67,1429.71,1626.37z"/>
	<path d="M1522.6,1601.67c7.29,9.13,10.93,19.93,10.93,32.39c0,12.67-3.64,23.51-10.93,32.51c-7.29,9-18.35,13.5-33.18,13.5
		c-14.84,0-25.89-4.5-33.18-13.5c-7.29-9-10.93-19.84-10.93-32.51c0-12.46,3.64-23.26,10.93-32.39c7.29-9.13,18.35-13.7,33.18-13.7
		C1504.25,1587.96,1515.31,1592.53,1522.6,1601.67z M1489.34,1607.05c-6.6,0-11.68,2.34-15.24,7.01c-3.56,4.67-5.35,11.34-5.35,20
		c0,8.66,1.78,15.34,5.35,20.03c3.56,4.7,8.64,7.05,15.24,7.05c6.6,0,11.67-2.35,15.2-7.05c3.54-4.7,5.31-11.38,5.31-20.03
		c0-8.66-1.77-15.32-5.31-20C1501,1609.39,1495.93,1607.05,1489.34,1607.05z"/>
	<path d="M1621.5,1601.67c7.29,9.13,10.93,19.93,10.93,32.39c0,12.67-3.64,23.51-10.93,32.51c-7.29,9-18.35,13.5-33.18,13.5
		c-14.84,0-25.89-4.5-33.18-13.5c-7.29-9-10.93-19.84-10.93-32.51c0-12.46,3.64-23.26,10.93-32.39c7.29-9.13,18.35-13.7,33.18-13.7
		C1603.16,1587.96,1614.22,1592.53,1621.5,1601.67z M1588.24,1607.05c-6.6,0-11.68,2.34-15.24,7.01c-3.56,4.67-5.35,11.34-5.35,20
		c0,8.66,1.78,15.34,5.35,20.03c3.56,4.7,8.64,7.05,15.24,7.05c6.6,0,11.67-2.35,15.2-7.05c3.54-4.7,5.31-11.38,5.31-20.03
		c0-8.66-1.77-15.32-5.31-20C1599.91,1609.39,1594.84,1607.05,1588.24,1607.05z"/>
	<path d="M1726.98,1560.49v116.57h-21.94v-11.96c-3.22,5.12-6.89,8.84-11.01,11.17c-4.12,2.32-9.24,3.48-15.36,3.48
		c-10.08,0-18.57-4.08-25.46-12.24c-6.89-8.16-10.33-18.62-10.33-31.4c0-14.73,3.39-26.32,10.18-34.76
		c6.78-8.45,15.85-12.67,27.2-12.67c5.23,0,9.87,1.15,13.94,3.44c4.07,2.3,7.37,5.48,9.9,9.54v-41.18H1726.98z M1666.16,1634.45
		c0,7.97,1.58,14.33,4.75,19.08c3.11,4.81,7.87,7.21,14.25,7.21c6.39,0,11.24-2.38,14.57-7.13c3.32-4.75,4.99-10.9,4.99-18.45
		c0-10.56-2.67-18.11-8-22.65c-3.27-2.75-7.07-4.12-11.4-4.12c-6.6,0-11.44,2.49-14.53,7.48
		C1667.71,1620.87,1666.16,1627.06,1666.16,1634.45z"/>
	<path d="M1806.8,1594.7c6.76,4.33,10.64,11.77,11.64,22.33h-22.57c-0.32-2.9-1.14-5.2-2.46-6.89c-2.48-3.06-6.7-4.59-12.67-4.59
		c-4.91,0-8.41,0.77-10.49,2.3c-2.09,1.53-3.13,3.33-3.13,5.39c0,2.59,1.11,4.46,3.33,5.62c2.22,1.21,10.06,3.3,23.52,6.26
		c8.97,2.11,15.71,5.31,20.19,9.58c4.43,4.33,6.65,9.74,6.65,16.23c0,8.55-3.18,15.54-9.54,20.95c-6.36,5.41-16.19,8.12-29.5,8.12
		c-13.57,0-23.59-2.86-30.05-8.59c-6.47-5.73-9.7-13.03-9.7-21.9h22.89c0.48,4.01,1.51,6.86,3.09,8.55
		c2.8,3.01,7.97,4.51,15.52,4.51c4.43,0,7.96-0.66,10.57-1.98c2.61-1.32,3.92-3.3,3.92-5.94c0-2.53-1.06-4.46-3.17-5.78
		c-2.11-1.32-9.95-3.59-23.52-6.81c-9.77-2.43-16.66-5.46-20.67-9.11c-4.01-3.59-6.02-8.76-6.02-15.52c0-7.97,3.13-14.82,9.38-20.55
		c6.26-5.73,15.06-8.59,26.41-8.59C1791.2,1588.28,1799.99,1590.42,1806.8,1594.7z"/>
	<path d="M747.98,1368.52l10.59,12.28c0,0,12.08-14.38,26.97-7.79c14.88,6.59,18.58,30.46,16.78,55.53
		c-1.8,25.07-11.39,35.06-24.07,34.76c-12.68-0.3-19.7-21.47-13-35.76c6.7-14.28,30.97-14.56,38.96,4.21l2.4-17.79
		c0,0-18.48-16.28-39.85-7.59c-21.37,8.69-29.06,36.27-14.78,56.94c14.28,20.67,55.83,18.27,63.52-10.69
		c7.69-28.96,8.59-52.63-3.9-76.1C799.12,1353.04,769.05,1351.44,747.98,1368.52z"/>
	<path d="M937.14,1658.95"/>
	<path d="M1013.06,1546.21c-3.16-3.51-7.3-5.38-12.26-5.59c-0.29-0.01-0.59-0.02-0.88-0.02c-5.93,0-12.57,2.46-19.95,7.27
		c-7.74,5.06-14.86,11.52-21.34,19.38c-6.47,7.84-11.89,15.35-16.27,22.55c-4.34,7.14-10.43,18.41-18.26,33.81l-6.86-0.29
		c-8.29-0.35-14.47-2.83-18.7-7.38c-3.91-4.22-5.89-9.95-5.89-17.32c0-0.59,0.01-1.2,0.04-1.81c0.64-15.09,6.8-27.99,18.55-38.82
		c11.12-10.23,23.53-15.32,37.33-15.32c0.79,0,1.59,0.02,2.4,0.05c2.54,0.11,4.71,0.32,6.52,0.63c1.79,0.31,4.39,0.96,7.75,1.95
		c0.28,0.08,0.58-0.05,0.71-0.31l0.93-1.86c0.08-0.16,0.08-0.35,0.01-0.51s-0.21-0.29-0.39-0.34c-3.68-1.04-6.54-1.74-8.63-2.09
		c-2.08-0.34-4.26-0.57-6.56-0.66c-1.1-0.05-2.19-0.07-3.28-0.07c-15.52,0-30.08,4.73-43.59,14.15
		c-14.46,10.07-22.07,21.48-22.61,34.18c-0.03,0.59-0.04,1.18-0.04,1.76c0,9.49,3.29,17.84,9.83,24.96
		c6.94,7.56,15.47,11.59,25.48,12l0.04,0l5.61-0.1c-3.4,6.45-6.71,12.73-9.93,18.82c-3.26,6.16-6.25,11.45-8.97,15.88
		c-7.46-3.53-13.45-5.99-17.96-7.36c-4.62-1.41-9.51-2.22-14.68-2.43c-0.44-0.02-0.87-0.03-1.3-0.03c-4.53,0-8.54,1.04-11.98,3.13
		c-1.88,1.14-3.34,2.44-4.35,3.91c-1.01,1.47-1.56,3.1-1.63,4.85c-0.01,0.16-0.01,0.32-0.01,0.47c0,2.06,0.58,3.97,1.73,5.69
		c1.15,1.72,2.85,3.23,5.08,4.56c4.63,2.76,10.61,4.28,17.93,4.59c0.88,0.04,1.76,0.06,2.64,0.06c4.87,0,9.76-0.57,14.67-1.69
		c5.71-1.32,11.66-3.45,17.85-6.39c7.39,3.97,12.76,6.55,16.14,7.77c3.44,1.23,7.45,1.94,12.05,2.13c0.45,0.02,0.91,0.03,1.36,0.03
		c6.78,0,13.52-2.15,20.18-6.41c7.1-4.54,15.56-12.27,25.44-23.19c0.12-0.14,0.18-0.32,0.15-0.5c-0.03-0.18-0.14-0.34-0.29-0.43
		l-1.88-1.08c-0.25-0.14-0.56-0.09-0.75,0.13c-8.66,9.99-16.37,17.21-23.11,21.67c-6.37,4.21-12.39,6.29-18.06,6.29
		c-0.32,0-0.65-0.01-0.97-0.02c-6.91-0.29-15.47-3.32-25.62-9.16c8.59-5.86,15.33-11.81,20.19-17.86
		c4.98-6.2,9.82-15.02,14.56-26.45c16.22-6.8,31.19-16.86,44.9-30.17c13.77-13.38,20.94-24.76,21.37-34.34
		c0.01-0.3,0.02-0.61,0.02-0.9C1017.53,1553.45,1016.03,1549.49,1013.06,1546.21z M953.02,1618.64l1.44-3.73l0.01-0.04l1.97-6.29
		l2.17-6.08l0.01-0.02l1.98-6.3c1.96-6.02,4.03-11.6,6.24-16.75c2.19-5.12,6.09-12.49,11.69-22.09c2.65-4.55,5.72-7.94,9.18-10.18
		c3.47-2.24,7.33-3.36,11.66-3.37c0.36,0,0.72,0.01,1.08,0.02c3.13,0.13,5.39,0.92,6.85,2.27c1.46,1.35,2.21,3.31,2.22,6.04
		c0,0.21,0,0.42-0.01,0.64c-0.19,4.61-2.49,11.12-6.95,19.4c-4.46,8.29-9.52,15.62-15.16,22c-5.66,6.39-11.08,11.42-16.24,15.09
		c-4.88,3.47-11.02,6.81-18.38,10.02L953.02,1618.64z M901.54,1664.23c-3.83,4.7-7.37,7.77-10.57,9.2
		c-2.85,1.28-6.75,1.95-11.68,1.94c-0.83,0-1.69-0.02-2.58-0.06c-6.88-0.29-12.23-1.57-16.04-3.77c-1.84-1.06-3.19-2.25-4.08-3.55
		c-0.88-1.3-1.32-2.71-1.32-4.29c0-0.12,0-0.24,0.01-0.36c0.06-1.26,0.48-2.39,1.31-3.45c0.83-1.06,2.08-2.05,3.76-2.93
		c3.06-1.61,6.53-2.42,10.46-2.42c0.41,0,0.82,0.01,1.24,0.03C879.68,1654.88,889.54,1658.1,901.54,1664.23z"/>
</g>
</svg>
